# xmcd
#
# Track frame offsets:
#	150
#	21870
#	49254
#	76443
#	103485
#	122203
#	150555
#	178635
#	199025
#	211954
#
# Disc length: 3107 seconds
#
# Revision: 0
# Processed by: cddbd v1.5.2PL0 Copyright (c) Steve Scherf et al.
# Submitted via: Jack! The Knife
#
DISCID=890c210a
DTITLE=Yngwie Malmsteen - Angels Of Love
DYEAR=2009
DGENRE=Classical
TTITLE0=Forever One
TTITLE1=Like An Angel
TTITLE2=Crying
TTITLE3=Brothers
TTITLE4=Memories
TTITLE5=Save Our Love
TTITLE6=Ocean Sonata
TTITLE7=Miracle Of Life
TTITLE8=Sorrow
TTITLE9=Prelude To April
EXTD=Yngwie Malmsteen
EXTT0=
EXTT1=
EXTT2=
EXTT3=
EXTT4=
EXTT5=
EXTT6=
EXTT7=
EXTT8=
EXTT9=
PLAYORDER=
